<?xml version="1.0" encoding="UTF-8" standalone="no"?><!DOCTYPE svg PUBLIC "-//W3C//DTD SVG 1.1//EN" "http://www.w3.org/Graphics/SVG/1.1/DTD/svg11.dtd"><svg width="100%" height="100%" viewBox="0 0 1600 1600" version="1.1" xmlns="http://www.w3.org/2000/svg" xmlns:xlink="http://www.w3.org/1999/xlink" xml:space="preserve" xmlns:serif="http://www.serif.com/" style="fill-rule:evenodd;clip-rule:evenodd;stroke-linejoin:round;stroke-miterlimit:2;"><g><path d="M1047.74,949.314l-82.741,-145.661l-67.769,39.144l92.163,-159.775l182.706,0.395l-65.12,38.458c0,0 38.834,65.256 47.412,80.281c13.805,24.086 20.889,59.344 5.553,83.859c-2.338,3.85 -46.416,82.363 -81.969,144.044c-0.739,-27.369 -14.697,-52.847 -30.309,-80.747l0.073,0l0,0.002Z" style="fill:#ea4335;fill-rule:nonzero;"/><path d="M1054.083,1071.595c-1.977,3.403 -3.972,6.791 -5.844,10.125c-9.061,15.678 -30.875,36.272 -115.68,34.778c-18.516,-0.345 -92.266,0.17 -114.269,0.344l-1.067,-165.861l215.887,-1.495c24.392,43.477 45.073,80.317 20.972,122.109Z" style="fill:#4285f4;fill-rule:nonzero;"/><path d="M833.609,476.293l-5.845,10.105c-9.038,15.624 -16.049,44.876 27.627,117.586c9.518,15.853 45.904,80.017 56.734,99.131l144.246,-81.815l-106.456,-187.895c-49.896,0.63 -92.134,1.102 -116.306,42.888Z" style="fill:#fbbc04;fill-rule:nonzero;"/><path d="M1202.587,338.288l-91.551,-158.08l-0.772,75.598c0,0 -76.061,-1.002 -93.256,-0.978c-27.769,0.043 -61.836,11.556 -75.464,37.038c-2.117,3.9 -48.17,81.349 -83.883,142.95c24.089,-12.978 53.122,-13.658 85.07,-13.985l-0.085,-0.128l167.642,-1.036l-0.066,78.292l92.364,-159.671Z" style="fill:#34a853;fill-rule:nonzero;"/><path d="M540.719,953.345l167.597,1.203l0,-78.27l92.247,159.773l-91.663,158.005l-0.775,-75.589c0,0 -76,0.945 -93.244,0.859c-27.781,-0.119 -61.786,-11.569 -75.419,-37.133c-2.114,-3.903 -48.1,-81.434 -83.722,-142.962c24,12.997 53.122,13.669 85.011,14.064l-0.033,0.05Z" style="fill-rule:nonzero;"/><path d="M453.576,770.069c9.487,-15.902 45.917,-79.972 56.783,-99.141l144.181,81.952l-106.603,187.797c-49.853,-0.638 -92.092,-1.153 -116.228,-42.875c-1.994,-3.456 -3.936,-6.825 -5.897,-10.228c-8.991,-15.611 -15.97,-44.836 27.764,-117.505Z" style="fill:#9aa0a6;fill-rule:nonzero;"/></g></svg>